<?xml version="1.0" encoding="utf-8"?>
<!-- Generator: Adobe Illustrator 24.1.2, SVG Export Plug-In . SVG Version: 6.00 Build 0)  -->
<svg version="1.1" id="Capa_1" xmlns="http://www.w3.org/2000/svg" xmlns:xlink="http://www.w3.org/1999/xlink" x="0px" y="0px"
	 viewBox="0 0 332.73 174.93" style="enable-background:new 0 0 332.73 174.93;" xml:space="preserve">
<style type="text/css">
	.st0{fill:#E1DCDB;}
	.st1{fill:none;}
	.st2{fill:#36A9E1;stroke:#312783;stroke-miterlimit:10;}
</style>
<g>
	<g>
		<path class="st0" d="M301.58,65.43c6.02-3.28,11.28-6.68,15.59-11.24c13.89-14.72,18.64-31.86,13.62-51.61
			c-1.01-3.96-2.76-2.57-4.69-0.99c-11.55,9.45-24.58,16.35-38.41,21.73c-17.34,6.74-35.22,10.35-53.7,10.1
			c13.47,15.61,21.35,36.1,21.27,58.6c-0.06,17.87-5.02,34.28-13.68,47.99c10.3,1.25,19.35-0.19,28.17-3.76
			c10.14-4.1,17.81-10.95,23.95-19.85c2.19-3.17,1.26-4.46-2.08-4.41c-5.51,0.07-10.49-1.81-15.74-3.93
			c17.86-2.21,31.84-10.71,41.63-25.55c3.61-5.47,6.32-11.56,6.75-18.74C316.85,65.26,309.68,66.53,301.58,65.43z"/>
		<path class="st0" d="M91.89,139.23c-8.58-13.69-13.48-29.96-13.13-47.49c-0.32-22.32,7.82-42.76,21.4-58.36
			c-18.99,0.46-37.33-3.15-55.11-10.06C31.21,17.94,18.19,11.04,6.63,1.59C4.7,0.01,2.95-1.39,1.94,2.57
			c-5.02,19.75-0.27,36.9,13.62,51.61c4.31,4.57,9.57,7.96,15.59,11.24c-8.1,1.1-15.27-0.17-22.68-1.66
			c0.43,7.18,3.14,13.27,6.75,18.74c9.8,14.84,23.78,23.34,41.63,25.55c-5.25,2.13-10.23,4-15.74,3.93
			c-3.35-0.04-4.27,1.24-2.08,4.41c6.14,8.9,13.81,15.75,23.95,19.85c9,3.64,18.23,5.07,28.79,3.68
			C91.74,139.98,91.78,139.72,91.89,139.23z"/>
		<path class="st0" d="M110.14,151.97c40.51,0.88,69.01-17.54,86.77-54.64c7.15,24.95,7.22,47.82-5.92,69.82
			c-3.62,6.07-8.87,6.77-14.46,7.31c-24.59,2.37-46.41-4.25-65.05-20.69C110.89,153.25,109.91,152.86,110.14,151.97"/>
		<path class="st0" d="M88.16,65.59c6.3,19.55,18.39,33,34.28,43.68c16.01,10.76,33.46,13.95,52.47,11.52
			c-12.19,12.4-26.09,20.99-42.89,24.39c-8.58,1.74-17.17,1.63-25.78,0.06c-2.58-0.47-4.34-1.57-5.93-3.7
			C85.79,122.13,79.14,94.47,88.16,65.59"/>
		<path class="st0" d="M146.12,114.1c-23.51-7.15-48.49-26.53-54.19-55.65c-0.31-1.61,0.24-2.83,0.9-4.08
			c11.91-22.49,30.15-37,54.83-43.35c1.23-0.32,2.49-0.71,3.57-0.05C126.84,43.92,122.27,77.91,146.12,114.1"/>
		<path class="st0" d="M196.88,168.35c17.42-34.98,12.4-67.83-10.53-99.8c26.55,7.12,47.43,19.4,58.46,44.58
			c0.9,2.05,1.2,3.89,0.37,6.12c-8.19,22.18-22.85,38.39-44.3,48.4C199.65,168.22,198.41,169.36,196.88,168.35"/>
		<path class="st0" d="M229.02,37.86c-18.95-4.34-36.72-0.95-53.59,7.71c-16.58,8.51-30.45,19.82-37,38.32
			c-5.56-24.63,0.14-55.17,22.7-73.67c1.06-0.87,2.14-1.28,3.51-1.3c25.53-0.4,46.82,8.98,64.04,27.74
			C228.84,36.83,228.83,37.18,229.02,37.86"/>
		<path class="st0" d="M248.3,107.66c-8.8-17.17-21.78-28.21-37.75-36.34c-15.96-8.12-32.83-9.83-50.46-8.61
			c8.33-7.63,17.72-13.12,28.13-16.86c14.52-5.22,29.18-6.05,44.07-1.48c2.41,0.74,3.94,1.96,5.2,4.05
			C248.3,66.42,251.75,85.78,248.3,107.66"/>
	</g>
	<g>
		<rect x="108.17" y="16.35" class="st1" width="116.39" height="145.12"/>
		<path class="st2" d="M202.99,19.95v46.49h-3.67c-1.19-8.92-3.32-16.02-6.39-21.31c-3.07-5.29-7.45-9.48-13.13-12.59
			c-5.68-3.11-11.56-4.66-17.64-4.66c-6.87,0-12.56,2.1-17.05,6.29c-4.5,4.2-6.74,8.97-6.74,14.32c0,4.1,1.42,7.83,4.26,11.2
			c4.1,4.96,13.84,11.56,29.24,19.82c12.55,6.74,21.13,11.91,25.72,15.51c4.59,3.6,8.13,7.85,10.61,12.74
			c2.48,4.89,3.72,10.01,3.72,15.36c0,10.18-3.95,18.95-11.85,26.32c-7.9,7.37-18.06,11.05-30.48,11.05c-3.9,0-7.57-0.3-11-0.89
			c-2.05-0.33-6.29-1.54-12.74-3.62c-6.44-2.08-10.52-3.12-12.24-3.12c-1.65,0-2.96,0.5-3.92,1.49c-0.96,0.99-1.67,3.04-2.13,6.14
			h-3.67v-46.09h3.67c1.72,9.65,4.03,16.87,6.94,21.66c2.91,4.79,7.35,8.77,13.33,11.94c5.98,3.17,12.54,4.76,19.68,4.76
			c8.26,0,14.79-2.18,19.58-6.54s7.19-9.52,7.19-15.46c0-3.3-0.91-6.64-2.72-10.01c-1.82-3.37-4.64-6.51-8.47-9.42
			c-2.58-1.98-9.62-6.19-21.11-12.64c-11.5-6.44-19.68-11.58-24.53-15.41c-4.86-3.83-8.54-8.06-11.05-12.69
			c-2.51-4.63-3.77-9.71-3.77-15.26c0-9.65,3.7-17.96,11.1-24.93c7.4-6.97,16.82-10.46,28.25-10.46c7.14,0,14.7,1.75,22.7,5.25
			c3.7,1.65,6.31,2.48,7.83,2.48c1.72,0,3.12-0.51,4.21-1.54c1.09-1.02,1.96-3.09,2.63-6.19H202.99z"/>
	</g>
</g>
</svg>
